<svg xmlns="http://www.w3.org/2000/svg" width="110" height="110" viewBox="0 0 110 110"><linearGradient id="a" gradientUnits="userSpaceOnUse" x1="55" x2="55" y2="109.644"><stop offset="0" stop-color="#FBB500"/><stop offset="1" stop-color="#F89500"/></linearGradient><circle fill="url(#a)" cx="55" cy="55" r="55"/><path d="M74.743 31.296c1.22 0 2.285.405 3.198 1.214s1.372 1.823 1.372 3.042c0 1.096-.392 2.41-1.175 3.94-5.778 10.948-9.825 17.492-12.14 19.633-1.688 1.584-3.585 2.376-5.69 2.376-2.193 0-4.078-.805-5.652-2.414-1.575-1.61-2.363-3.52-2.363-5.73 0-2.228.8-4.073 2.402-5.535L71.35 32.707c1.025-.94 2.157-1.41 3.393-1.41zM51.013 58.29c.678 1.322 1.604 2.454 2.78 3.394 1.174.94 2.484 1.602 3.93 1.983l.025 1.854c.07 3.71-1.058 6.73-3.38 9.06-2.325 2.333-5.357 3.5-9.1 3.5-2.14 0-4.037-.405-5.69-1.215-1.654-.81-2.98-1.918-3.98-3.328-1.002-1.41-1.754-3.002-2.26-4.777-.504-1.775-.757-3.69-.757-5.743l1.072.782s1.13.82 1.62 1.16c.486.34 1 .658 1.54.953.54.297.94.444 1.2.444.713 0 1.192-.32 1.436-.966.435-1.147.936-2.127 1.5-2.936.567-.81 1.17-1.472 1.815-1.984.644-.514 1.41-.927 2.297-1.24.888-.313 1.784-.535 2.69-.666s1.992-.222 3.262-.274z"/></svg>