<svg xmlns="http://www.w3.org/2000/svg" width="110" height="110" viewBox="0 0 110 110"><linearGradient id="a" gradientUnits="userSpaceOnUse" x1="55" x2="55" y2="109.644"><stop offset="0" stop-color="#FBB500"/><stop offset="1" stop-color="#F89500"/></linearGradient><circle fill="url(#a)" cx="55" cy="55" r="55"/><path d="M74.743 31.296c1.219 0 2.285.405 3.198 1.214s1.371 1.823 1.371 3.042c0 1.096-.392 2.41-1.175 3.941-5.778 10.947-9.825 17.491-12.14 19.632-1.688 1.584-3.585 2.376-5.691 2.376-2.192 0-4.077-.806-5.651-2.415-1.575-1.609-2.363-3.52-2.363-5.73 0-2.228.801-4.073 2.402-5.535l16.655-15.115c1.026-.94 2.158-1.41 3.394-1.41zm-23.731 26.994c.679 1.322 1.605 2.454 2.781 3.394 1.174.939 2.484 1.602 3.929 1.983l.026 1.854c.069 3.708-1.058 6.728-3.381 9.06-2.324 2.332-5.356 3.498-9.098 3.498-2.141 0-4.038-.404-5.691-1.214-1.654-.809-2.981-1.918-3.981-3.328-1.001-1.41-1.753-3.002-2.259-4.777-.504-1.775-.757-3.69-.757-5.743l1.071.782s1.131.822 1.619 1.162c.487.339 1 .657 1.54.952.54.297.94.444 1.201.444.713 0 1.192-.321 1.436-.966.435-1.148.936-2.128 1.501-2.937.566-.81 1.17-1.472 1.814-1.984.644-.514 1.41-.927 2.297-1.24.888-.313 1.784-.535 2.689-.666s1.993-.222 3.263-.274z"/></svg>